<svg width="65" height="64" viewBox="0 0 65 64" fill="none" xmlns="http://www.w3.org/2000/svg">
<path d="M45.8151 15.7837C46.2071 15.3912 46.4272 14.8592 46.4272 14.3046C46.4272 13.7499 46.2071 13.2179 45.8151 12.8254L33.9539 0.9642C33.5614 0.572221 33.0294 0.352051 32.4747 0.352051C31.9201 0.352051 31.3881 0.572221 30.9956 0.9642L19.1344 12.8254C18.7649 13.2224 18.5636 13.7473 18.573 14.2896C18.5824 14.8319 18.8016 15.3494 19.1846 15.7335C19.5687 16.1165 20.0862 16.3357 20.6285 16.3451C21.1709 16.3545 21.6957 16.1532 22.0927 15.7837L30.3816 7.49483V28.2589C30.3816 28.814 30.6021 29.3464 30.9947 29.739C31.3872 30.1315 31.9196 30.352 32.4747 30.352C33.0299 30.352 33.5623 30.1315 33.9548 29.739C34.3474 29.3464 34.5679 28.814 34.5679 28.2589V7.49483L42.8568 15.7837C43.2492 16.1757 43.7812 16.3959 44.3359 16.3959C44.8906 16.3959 45.4226 16.1757 45.8151 15.7837Z" fill="#DDDDDD"/>
<path d="M7.85156 50.8105C7.72656 49.7012 6.71094 49.0605 5.35156 49.0605C3.85156 49.0605 2.86719 49.8418 2.86719 50.9199C2.86719 52.1074 4.19531 52.5449 5.05469 52.7637L6.17969 53.0762C7.39844 53.3887 9.38281 54.0918 9.38281 56.2012C9.38281 58.0449 7.89844 59.4824 5.27344 59.4824C2.83594 59.4824 1.32031 58.2168 1.19531 56.3418H2.63281C2.75781 57.6074 3.92969 58.2012 5.27344 58.2012C6.83594 58.2012 8.00781 57.4043 8.00781 56.1699C8.00781 55.0762 6.96094 54.6543 5.77344 54.3105L4.38281 53.9355C2.60156 53.4199 1.50781 52.5137 1.50781 50.9824C1.50781 49.0762 3.21094 47.8105 5.39844 47.8105C7.58594 47.8105 9.16406 49.0918 9.22656 50.8105H7.85156ZM14.6953 59.4512C12.2891 59.4512 10.8203 57.623 10.8203 55.0762C10.8203 52.498 12.3516 50.6855 14.6641 50.6855C16.4766 50.6855 17.8203 51.748 18.0391 53.3574H16.6953C16.5078 52.5762 15.8203 51.873 14.6953 51.873C13.1797 51.873 12.1641 53.123 12.1641 55.0293C12.1641 56.998 13.1484 58.248 14.6953 58.248C15.6953 58.248 16.4609 57.7168 16.6953 56.7793H18.0391C17.8203 58.2949 16.5859 59.4512 14.6953 59.4512ZM19.6953 59.2793V50.7949H20.9922V52.0918H21.0859C21.3984 51.2324 22.2734 50.6543 23.2734 50.6543C23.4766 50.6543 23.8203 50.6699 23.9766 50.6855V52.0449C23.8828 52.0137 23.5078 51.9512 23.1641 51.9512C21.9453 51.9512 21.0391 52.7949 21.0391 53.9355V59.2793H19.6953ZM28.4766 59.4512C26.1641 59.4512 24.6016 57.7168 24.6016 55.0762C24.6016 52.4355 26.1641 50.6855 28.4766 50.6855C30.7734 50.6855 32.3203 52.4355 32.3203 55.0762C32.3203 57.7168 30.7734 59.4512 28.4766 59.4512ZM28.4766 58.2637C30.1797 58.2637 30.9766 56.7637 30.9766 55.0762C30.9766 53.3887 30.1797 51.873 28.4766 51.873C26.7422 51.873 25.9453 53.3887 25.9453 55.0762C25.9453 56.7637 26.7422 58.2637 28.4766 58.2637ZM35.4297 47.9668V59.2793H34.0859V47.9668H35.4297ZM38.9141 47.9668V59.2793H37.5703V47.9668H38.9141ZM52.6484 47.9668H54.0547V55.4512C54.0547 57.7793 52.3203 59.4824 49.6484 59.4824C46.9766 59.4824 45.2422 57.7793 45.2422 55.4512V47.9668H46.6484V55.3418C46.6484 56.9824 47.7891 58.1699 49.6484 58.1699C51.5234 58.1699 52.6484 56.9824 52.6484 55.3418V47.9668ZM56.3828 62.4668V50.7949H57.6797V52.1387H57.8359C58.1172 51.6855 58.6484 50.6855 60.2891 50.6855C62.4141 50.6855 63.8984 52.373 63.8984 55.0605C63.8984 57.748 62.4141 59.4512 60.3047 59.4512C58.6797 59.4512 58.1172 58.4512 57.8359 57.9824H57.7266V62.4668H56.3828ZM57.6953 55.0293C57.6953 56.9355 58.5547 58.248 60.1172 58.248C61.7266 58.248 62.5547 56.8418 62.5547 55.0293C62.5547 53.2637 61.7422 51.8887 60.1172 51.8887C58.5234 51.8887 57.6953 53.1543 57.6953 55.0293Z" fill="#DDDDDD"/>
</svg>
