<svg width="215" height="44" viewBox="0 0 215 44" fill="none" xmlns="http://www.w3.org/2000/svg">
<mask id="mask0_11_749" style="mask-type:luminance" maskUnits="userSpaceOnUse" x="0" y="0" width="215" height="44">
<path d="M215 0.026123H0V43.4497H215V0.026123Z" fill="black"/>
<path d="M15.334 39.8312C22.4083 39.8312 27.3959 34.8436 27.3959 27.8199V4.25549H19.8635V27.2092C19.8635 30.6193 17.6242 33.0112 14.5704 33.0112C12.2292 33.0112 9.73535 31.4335 8.61585 29.1433L3.62793 34.029C5.96914 37.439 10.8551 39.8312 15.334 39.8312ZM51.0114 39.8312C60.274 39.8312 66.8395 33.3167 66.8395 24.1047V4.25549H59.3071V23.7992C59.3071 29.1943 55.8461 33.0112 51.0114 33.0112C46.1254 33.0112 42.6644 29.1943 42.6644 23.7992V4.25549H35.1829V24.1047C35.1829 33.3167 41.6975 39.8312 51.0114 39.8312ZM74.9827 39.2205H82.4644V16.6229L99.3104 39.2205H106.843V4.25549H99.3104V26.853L82.4644 4.25549H74.9827V39.2205ZM131.12 25.4278H139.263V30.7719C137.278 32.1969 134.835 33.0112 132.443 33.0112C126.488 33.0112 121.45 27.8199 121.45 21.7125C121.45 15.6561 126.488 10.4648 132.443 10.4648C135.649 10.4648 139.06 11.9918 141.146 14.3837L146.592 9.49767C143.08 5.83338 137.685 3.64478 132.443 3.64478C122.315 3.64478 113.714 11.8898 113.714 21.7125C113.714 31.5352 122.315 39.8312 132.443 39.8312C137.685 39.8312 143.08 37.6426 146.592 33.9783V19.5749H131.12V25.4278ZM161.199 32.4514V4.25549H153.666V39.2205H178.605V32.4514H161.199ZM211.381 11.0246V4.25549H184.458V39.2205H211.381V32.4514H191.99V24.7664H209.549V17.9973H191.99V11.0246H211.381Z" fill="white"/>
</mask>
<g mask="url(#mask0_11_749)">
<path d="M215 0.026123H0V43.4497H215V0.026123Z" fill="white"/>
</g>
</svg>
