<svg width="86" height="72" viewBox="0 0 86 72" fill="none" xmlns="http://www.w3.org/2000/svg">
<path d="M56.7243 28.4956C57.1163 28.8881 57.3364 29.4201 57.3364 29.9747C57.3364 30.5294 57.1163 31.0614 56.7243 31.4539L44.8631 43.3151C44.4706 43.7071 43.9386 43.9272 43.3839 43.9272C42.8292 43.9272 42.2972 43.7071 41.9048 43.3151L30.0436 31.4539C29.674 31.0569 29.4728 30.532 29.4822 29.9897C29.4915 29.4474 29.7108 28.9299 30.0938 28.5458C30.4778 28.1628 30.9954 27.9436 31.5377 27.9342C32.08 27.9248 32.6049 28.126 33.0019 28.4956L41.2908 36.7845V16.0204C41.2908 15.4653 41.5113 14.9329 41.9038 14.5403C42.2964 14.1478 42.8288 13.9272 43.3839 13.9272C43.9391 13.9272 44.4715 14.1478 44.864 14.5403C45.2565 14.9329 45.4771 15.4653 45.4771 16.0204V36.7845L53.766 28.4956C54.1584 28.1036 54.6904 27.8834 55.2451 27.8834C55.7998 27.8834 56.3318 28.1036 56.7243 28.4956Z" fill="white"/>
<path d="M8.49512 58.9576C8.37012 57.8483 7.35449 57.2076 5.99512 57.2076C4.49512 57.2076 3.51074 57.9889 3.51074 59.067C3.51074 60.2545 4.83887 60.692 5.69824 60.9108L6.82324 61.2233C8.04199 61.5358 10.0264 62.2389 10.0264 64.3483C10.0264 66.192 8.54199 67.6295 5.91699 67.6295C3.47949 67.6295 1.96387 66.3639 1.83887 64.4889H3.27637C3.40137 65.7545 4.57324 66.3483 5.91699 66.3483C7.47949 66.3483 8.65137 65.5514 8.65137 64.317C8.65137 63.2233 7.60449 62.8014 6.41699 62.4576L5.02637 62.0826C3.24512 61.567 2.15137 60.6608 2.15137 59.1295C2.15137 57.2233 3.85449 55.9576 6.04199 55.9576C8.22949 55.9576 9.80762 57.2389 9.87012 58.9576H8.49512ZM15.3389 67.5983C12.9326 67.5983 11.4639 65.7701 11.4639 63.2233C11.4639 60.6451 12.9951 58.8326 15.3076 58.8326C17.1201 58.8326 18.4639 59.8951 18.6826 61.5045H17.3389C17.1514 60.7233 16.4639 60.0201 15.3389 60.0201C13.8232 60.0201 12.8076 61.2701 12.8076 63.1764C12.8076 65.1451 13.792 66.3951 15.3389 66.3951C16.3389 66.3951 17.1045 65.8639 17.3389 64.9264H18.6826C18.4639 66.442 17.2295 67.5983 15.3389 67.5983ZM20.3389 67.4264V58.942H21.6357V60.2389H21.7295C22.042 59.3795 22.917 58.8014 23.917 58.8014C24.1201 58.8014 24.4639 58.817 24.6201 58.8326V60.192C24.5264 60.1608 24.1514 60.0983 23.8076 60.0983C22.5889 60.0983 21.6826 60.942 21.6826 62.0826V67.4264H20.3389ZM29.1201 67.5983C26.8076 67.5983 25.2451 65.8639 25.2451 63.2233C25.2451 60.5826 26.8076 58.8326 29.1201 58.8326C31.417 58.8326 32.9639 60.5826 32.9639 63.2233C32.9639 65.8639 31.417 67.5983 29.1201 67.5983ZM29.1201 66.4108C30.8232 66.4108 31.6201 64.9108 31.6201 63.2233C31.6201 61.5358 30.8232 60.0201 29.1201 60.0201C27.3857 60.0201 26.5889 61.5358 26.5889 63.2233C26.5889 64.9108 27.3857 66.4108 29.1201 66.4108ZM36.0732 56.1139V67.4264H34.7295V56.1139H36.0732ZM39.5576 56.1139V67.4264H38.2139V56.1139H39.5576ZM49.4014 67.4264H45.8857V56.1139H49.542C52.8389 56.1139 54.792 58.2389 54.792 61.7545C54.792 65.2858 52.8389 67.4264 49.4014 67.4264ZM47.292 66.1764H49.3076C52.0889 66.1764 53.417 64.5045 53.417 61.7545C53.417 59.0201 52.0889 57.3639 49.4482 57.3639H47.292V66.1764ZM60.1514 67.5983C57.8389 67.5983 56.2764 65.8639 56.2764 63.2233C56.2764 60.5826 57.8389 58.8326 60.1514 58.8326C62.4482 58.8326 63.9951 60.5826 63.9951 63.2233C63.9951 65.8639 62.4482 67.5983 60.1514 67.5983ZM60.1514 66.4108C61.8545 66.4108 62.6514 64.9108 62.6514 63.2233C62.6514 61.5358 61.8545 60.0201 60.1514 60.0201C58.417 60.0201 57.6201 61.5358 57.6201 63.2233C57.6201 64.9108 58.417 66.4108 60.1514 66.4108ZM67.3857 67.4264L64.8076 58.942H66.2295L68.042 65.4108H68.1201L69.917 58.942H71.3545L73.1201 65.3795H73.2139L75.0264 58.942H76.4326L73.8545 67.4264H72.5264L70.6826 60.9576H70.5576L68.7295 67.4264H67.3857ZM79.2607 62.3326V67.4264H77.917V58.942H79.2139V60.2701H79.3232C79.7295 59.4108 80.5107 58.8326 81.8076 58.8326C83.5264 58.8326 84.667 59.8795 84.667 62.0358V67.4264H83.3232V62.1295C83.3232 60.817 82.6045 60.0358 81.4014 60.0358C80.167 60.0358 79.2607 60.8639 79.2607 62.3326Z" fill="white"/>
</svg>
