<svg width="50" height="50" viewBox="0 0 50 50" fill="none" xmlns="http://www.w3.org/2000/svg">
<path d="M26.083 11.9797C25.792 11.7 25.4039 11.5437 25.0002 11.5437C24.5965 11.5437 24.2085 11.7 23.9174 11.9797L15.6159 19.9688C14.6018 20.9438 15.2924 22.6563 16.6987 22.6563H21.4846C21.5882 22.6563 21.6876 22.6975 21.7608 22.7707C21.8341 22.844 21.8752 22.9433 21.8752 23.0469V38.2813C21.8752 38.6957 22.0398 39.0931 22.3329 39.3862C22.6259 39.6792 23.0233 39.8438 23.4377 39.8438H26.5627C26.9771 39.8438 27.3746 39.6792 27.6676 39.3862C27.9606 39.0931 28.1252 38.6957 28.1252 38.2813V23.0469C28.1252 22.9433 28.1664 22.844 28.2396 22.7707C28.3129 22.6975 28.4123 22.6563 28.5159 22.6563H33.3018C34.708 22.6563 35.3987 20.9438 34.3846 19.9688L26.083 11.9797Z" fill="black"/>
<path d="M9.375 1.5625C8.34905 1.5625 7.33314 1.76458 6.38529 2.15719C5.43743 2.54981 4.57619 3.12527 3.85073 3.85073C2.3856 5.31586 1.5625 7.303 1.5625 9.375V40.625C1.5625 42.697 2.3856 44.6841 3.85073 46.1493C4.57619 46.8747 5.43743 47.4502 6.38529 47.8428C7.33314 48.2354 8.34905 48.4375 9.375 48.4375H40.625C42.697 48.4375 44.6841 47.6144 46.1493 46.1493C47.6144 44.6841 48.4375 42.697 48.4375 40.625V9.375C48.4375 8.34905 48.2354 7.33314 47.8428 6.38529C47.4502 5.43743 46.8747 4.57619 46.1493 3.85073C45.4238 3.12527 44.5626 2.54981 43.6147 2.15719C42.6669 1.76458 41.651 1.5625 40.625 1.5625H9.375ZM4.6875 9.375C4.6875 8.1318 5.18136 6.93951 6.06044 6.06044C6.93951 5.18136 8.1318 4.6875 9.375 4.6875H40.625C41.8682 4.6875 43.0605 5.18136 43.9396 6.06044C44.8186 6.93951 45.3125 8.1318 45.3125 9.375V40.625C45.3125 41.8682 44.8186 43.0605 43.9396 43.9396C43.0605 44.8186 41.8682 45.3125 40.625 45.3125H9.375C8.1318 45.3125 6.93951 44.8186 6.06044 43.9396C5.18136 43.0605 4.6875 41.8682 4.6875 40.625V9.375Z" fill="black"/>
</svg>
