<svg width="50" height="50" viewBox="0 0 50 50" fill="none" xmlns="http://www.w3.org/2000/svg">
<path d="M26.083 38.0203C25.792 38.3 25.4039 38.4563 25.0002 38.4563C24.5965 38.4563 24.2085 38.3 23.9174 38.0203L15.6159 30.0312C14.6018 29.0562 15.2924 27.3437 16.6987 27.3437H21.4846C21.5882 27.3437 21.6876 27.3025 21.7608 27.2293C21.8341 27.156 21.8752 27.0567 21.8752 26.9531V11.7187C21.8752 11.3043 22.0398 10.9069 22.3329 10.6138C22.6259 10.3208 23.0233 10.1562 23.4377 10.1562H26.5627C26.9771 10.1562 27.3746 10.3208 27.6676 10.6138C27.9606 10.9069 28.1252 11.3043 28.1252 11.7187V26.9531C28.1252 27.0567 28.1664 27.156 28.2396 27.2293C28.3129 27.3025 28.4123 27.3437 28.5159 27.3437H33.3018C34.708 27.3437 35.3987 29.0562 34.3846 30.0312L26.083 38.0203Z" fill="black"/>
<path d="M9.375 48.4375C8.34905 48.4375 7.33314 48.2354 6.38529 47.8428C5.43743 47.4502 4.57619 46.8747 3.85073 46.1493C2.3856 44.6841 1.5625 42.697 1.5625 40.625V9.375C1.5625 7.303 2.3856 5.31586 3.85073 3.85073C4.57619 3.12527 5.43743 2.5498 6.38529 2.15719C7.33314 1.76458 8.34905 1.5625 9.375 1.5625H40.625C42.697 1.5625 44.6841 2.3856 46.1493 3.85073C47.6144 5.31586 48.4375 7.303 48.4375 9.375V40.625C48.4375 41.651 48.2354 42.6669 47.8428 43.6147C47.4502 44.5626 46.8747 45.4238 46.1493 46.1493C45.4238 46.8747 44.5626 47.4502 43.6147 47.8428C42.6669 48.2354 41.651 48.4375 40.625 48.4375H9.375ZM4.6875 40.625C4.6875 41.8682 5.18136 43.0605 6.06044 43.9396C6.93951 44.8186 8.1318 45.3125 9.375 45.3125H40.625C41.8682 45.3125 43.0605 44.8186 43.9396 43.9396C44.8186 43.0605 45.3125 41.8682 45.3125 40.625V9.375C45.3125 8.1318 44.8186 6.93951 43.9396 6.06044C43.0605 5.18136 41.8682 4.6875 40.625 4.6875H9.375C8.1318 4.6875 6.93951 5.18136 6.06044 6.06044C5.18136 6.93951 4.6875 8.1318 4.6875 9.375V40.625Z" fill="black"/>
</svg>
