<svg width="53" height="53" viewBox="0 0 53 53" fill="none" xmlns="http://www.w3.org/2000/svg">
<path id="Arrow/ScrollDown" d="M5.47094 4.04661C4.17667 4.04741 2.93564 4.56192 2.02045 5.4771C1.10527 6.39229 0.590765 7.63332 0.58996 8.92759L0.589962 48.0675C0.590768 49.3618 1.10527 50.6028 2.02046 51.518C2.93565 52.4332 4.17667 52.9477 5.47094 52.9485L44.6109 52.9485C45.8757 52.9031 47.0736 52.3692 47.9529 51.459C48.8322 50.5488 49.3244 49.3331 49.3261 48.0675C49.3244 46.802 48.8322 45.5863 47.9529 44.6761C47.0736 43.7658 45.8757 43.2319 44.6109 43.1866H17.259L51.5179 8.92759C52.4339 8.01166 52.9484 6.76939 52.9484 5.47407C52.9484 4.17874 52.4339 2.93648 51.5179 2.02054C50.602 1.10461 49.3597 0.590046 48.0644 0.590046C46.7691 0.590046 45.5268 1.10461 44.6109 2.02054L10.3519 36.2795L10.3519 8.92759C10.3511 7.63332 9.83662 6.39229 8.92143 5.4771C8.00624 4.56192 6.76521 4.04741 5.47094 4.04661Z" fill="#444444"/>
</svg>
