<svg width="23" height="23" viewBox="0 0 23 23" fill="none" xmlns="http://www.w3.org/2000/svg">
<path id="Arrow/ScrollDown" d="M20.5645 1.73428C21.1192 1.73462 21.651 1.95512 22.0433 2.34735C22.4355 2.73957 22.656 3.27144 22.6563 3.82613V20.6004C22.656 21.1551 22.4355 21.6869 22.0433 22.0792C21.651 22.4714 21.1192 22.6919 20.5645 22.6922L3.79023 22.6922C3.24819 22.6728 2.73478 22.444 2.35793 22.0539C1.98109 21.6638 1.77014 21.1428 1.76942 20.6004C1.77014 20.058 1.98109 19.537 2.35793 19.1469C2.73479 18.7568 3.24818 18.528 3.79023 18.5085L15.5125 18.5085L0.830067 3.82613C0.437526 3.43358 0.216999 2.90118 0.216999 2.34605C0.216999 1.79091 0.437525 1.25851 0.830067 0.865963C1.22261 0.473421 1.75501 0.252895 2.31015 0.252894C2.86529 0.252894 3.39769 0.473421 3.79023 0.865963L18.4726 15.5484L18.4726 3.82613C18.473 3.27144 18.6935 2.73957 19.0857 2.34735C19.4779 1.95512 20.0098 1.73462 20.5645 1.73428Z" fill="black"/>
</svg>
