<svg xmlns="http://www.w3.org/2000/svg" width="53" height="53" viewBox="0 0 53 53" fill="none">
  <path d="M47.9841 4.04661C49.2784 4.04741 50.5194 4.56192 51.4346 5.4771C52.3498 6.39229 52.8643 7.63332 52.8651 8.92759L52.8651 48.0675C52.8643 49.3618 52.3498 50.6028 51.4346 51.518C50.5194 52.4332 49.2784 52.9477 47.9841 52.9485L8.84419 52.9485C7.57942 52.9031 6.38148 52.3692 5.50217 51.459C4.62285 50.5488 4.13064 49.3331 4.12898 48.0675C4.13064 46.802 4.62285 45.5863 5.50217 44.6761C6.38148 43.7658 7.57942 43.2319 8.84419 43.1866L36.1961 43.1866L1.93714 8.92759C1.02121 8.01166 0.506651 6.76939 0.506651 5.47407C0.506652 4.17874 1.02121 2.93648 1.93714 2.02054C2.85308 1.10461 4.09535 0.590048 5.39067 0.590048C6.68599 0.590048 7.92826 1.10461 8.84419 2.02054L43.1032 36.2795L43.1032 8.92759C43.104 7.63332 43.6185 6.39229 44.5337 5.4771C45.4488 4.56192 46.6899 4.04741 47.9841 4.04661Z" fill="#444444"/>
</svg>