<svg xmlns="http://www.w3.org/2000/svg" width="20" height="20" viewBox="0 0 20 20" fill="none">
<g clip-path="url(#clip0_498_814)">
<path d="M2.34467 12.8889L1.28911 17.4444C1.2527 17.6109 1.25395 17.7835 1.29276 17.9495C1.33158 18.1155 1.40699 18.2707 1.51348 18.4038C1.61997 18.5369 1.75485 18.6446 1.90826 18.7189C2.06168 18.7932 2.22976 18.8323 2.40022 18.8333C2.47965 18.8413 2.55968 18.8413 2.63911 18.8333L7.22244 17.7778L16.0224 9.01108L11.1113 4.11108L2.34467 12.8889Z" fill="black"/>
<path d="M18.7891 4.62219L15.5113 1.34441C15.2958 1.13001 15.0042 1.00964 14.7002 1.00964C14.3962 1.00964 14.1046 1.13001 13.8891 1.34441L12.0669 3.16664L16.9724 8.07219L18.7947 6.24997C18.9013 6.14279 18.9858 6.01564 19.0432 5.87578C19.1007 5.73593 19.13 5.58612 19.1294 5.43493C19.1289 5.28374 19.0986 5.13413 19.0402 4.99467C18.9818 4.85522 18.8965 4.72864 18.7891 4.62219Z" fill="black"/>
</g>
<defs>
<clipPath id="clip0_498_814">
<rect width="20" height="20" fill="white"/>
</clipPath>
</defs>
</svg>