<svg width="780" height="160" viewBox="0 0 780 160" fill="none" xmlns="http://www.w3.org/2000/svg">
<mask id="mask0_2_41" style="mask-type:luminance" maskUnits="userSpaceOnUse" x="0" y="0" width="780" height="160">
<path d="M780 0H0V160H780V0Z" fill="black"/>
<path d="M55.6301 146.667C81.2951 146.667 99.3898 128.289 99.3898 102.41V15.5833H72.0629V100.159C72.0629 112.724 63.9389 121.537 52.8598 121.537C44.3661 121.537 35.3188 115.725 31.2573 107.286L13.1616 125.288C21.6553 137.853 39.3812 146.667 55.6301 146.667ZM185.064 146.667C218.668 146.667 242.487 122.663 242.487 88.7203V15.5833H215.161V87.5947C215.161 107.474 202.604 121.537 185.064 121.537C167.338 121.537 154.782 107.474 154.782 87.5947V15.5833H127.64V88.7203C127.64 122.663 151.274 146.667 185.064 146.667ZM272.03 144.417H299.173V61.1529L360.289 144.417H387.616V15.5833H360.289V98.847L299.173 15.5833H272.03V144.417ZM475.691 93.5954H505.233V113.286C498.032 118.537 489.169 121.537 480.491 121.537C458.888 121.537 440.609 102.41 440.609 79.9061C440.609 57.5902 458.888 38.4625 480.491 38.4625C492.124 38.4625 504.495 44.0886 512.065 52.9019L531.822 34.8988C519.082 21.3972 499.509 13.333 480.491 13.333C443.748 13.333 412.543 43.7131 412.543 79.9061C412.543 116.099 443.748 146.667 480.491 146.667C499.509 146.667 519.082 138.603 531.822 125.101V72.0296H475.691V93.5954ZM584.814 119.475V15.5833H557.487V144.417H647.961V119.475H584.814ZM766.871 40.5249V15.5833H669.195V144.417H766.871V119.475H696.523V91.1584H760.224V66.2167H696.523V40.5249H766.871Z" fill="white"/>
</mask>
<g mask="url(#mask0_2_41)">
<path d="M780 0H0V160H780V0Z" fill="black"/>
</g>
</svg>
