<svg width="964" height="964" viewBox="0 0 964 964" fill="none" xmlns="http://www.w3.org/2000/svg">
<path d="M964 482C964 748.201 748.201 964 482 964C215.799 964 0 748.201 0 482C0 215.799 215.799 2.29826e-05 482 2.29826e-05C748.201 2.29826e-05 964 215.799 964 482Z" fill="black"/>
<mask id="mask0_81_100" style="mask-type:luminance" maskUnits="userSpaceOnUse" x="277" y="766" width="2068" height="59">
<path d="M2344.12 766.866H277.634V824.536H2344.12V766.866Z" fill="black"/>
<path d="M287.66 795.702C313.896 820.775 340.132 820.775 366.369 795.702C392.605 770.629 418.841 770.629 445.077 795.702C471.313 820.775 497.55 820.775 523.788 795.702C550.026 770.629 576.262 770.629 602.496 795.702C628.731 820.775 654.967 820.775 681.205 795.702C707.443 770.629 733.679 770.629 759.913 795.702C786.147 820.775 812.384 820.775 838.624 795.702C864.864 770.629 891.1 770.629 917.333 795.702C943.565 820.775 969.801 820.775 996.041 795.702C1022.28 770.629 1048.52 770.629 1074.75 795.702C1100.98 820.775 1127.22 820.775 1153.46 795.702C1179.7 770.629 1205.94 770.629 1232.17 795.702C1258.4 820.775 1284.64 820.775 1310.88 795.702C1337.12 770.629 1363.35 770.629 1389.59 795.702C1415.82 820.775 1442.05 820.775 1468.29 795.702C1494.54 770.629 1520.77 770.629 1547.01 795.702C1573.24 820.775 1599.47 820.775 1625.71 795.702C1651.95 770.629 1678.19 770.629 1704.42 795.702C1730.65 820.775 1756.89 820.775 1783.13 795.702C1809.37 770.629 1835.61 770.629 1861.84 795.702C1888.08 820.775 1914.31 820.775 1940.55 795.702C1966.79 770.629 1993.02 770.629 2019.26 795.702C2045.49 820.775 2071.73 820.775 2097.97 795.702C2124.2 770.629 2150.44 770.629 2176.68 795.702C2202.91 820.775 2229.15 820.775 2255.39 795.702C2281.62 770.629 2307.86 770.629 2334.09 795.702" fill="black"/>
<path d="M287.66 795.702C313.896 820.775 340.132 820.775 366.369 795.702C392.605 770.629 418.841 770.629 445.077 795.702C471.313 820.775 497.55 820.775 523.788 795.702C550.026 770.629 576.262 770.629 602.496 795.702C628.731 820.775 654.967 820.775 681.205 795.702C707.443 770.629 733.679 770.629 759.913 795.702C786.147 820.775 812.384 820.775 838.624 795.702C864.864 770.629 891.1 770.629 917.333 795.702C943.565 820.775 969.801 820.775 996.041 795.702C1022.28 770.629 1048.52 770.629 1074.75 795.702C1100.98 820.775 1127.22 820.775 1153.46 795.702C1179.7 770.629 1205.94 770.629 1232.17 795.702C1258.4 820.775 1284.64 820.775 1310.88 795.702C1337.12 770.629 1363.35 770.629 1389.59 795.702C1415.82 820.775 1442.05 820.775 1468.29 795.702C1494.54 770.629 1520.77 770.629 1547.01 795.702C1573.24 820.775 1599.47 820.775 1625.71 795.702C1651.95 770.629 1678.19 770.629 1704.42 795.702C1730.65 820.775 1756.89 820.775 1783.13 795.702C1809.37 770.629 1835.61 770.629 1861.84 795.702C1888.08 820.775 1914.31 820.775 1940.55 795.702C1966.79 770.629 1993.02 770.629 2019.26 795.702C2045.49 820.775 2071.73 820.775 2097.97 795.702C2124.2 770.629 2150.44 770.629 2176.68 795.702C2202.91 820.775 2229.15 820.775 2255.39 795.702C2281.62 770.629 2307.86 770.629 2334.09 795.702" stroke="white" stroke-width="7.39"/>
</mask>
<g mask="url(#mask0_81_100)">
<path d="M655.153 768H278V825H685L655.153 768Z" fill="white"/>
</g>
<path fill-rule="evenodd" clip-rule="evenodd" d="M652 508.797C652 619.317 573.517 697.799 462.2 697.799C391.723 697.799 314.84 660.158 278 606.499L356.487 529.62C374.103 565.658 413.344 590.483 450.184 590.483C498.238 590.483 533.474 552.845 533.474 499.187V138H652V508.797Z" fill="white"/>
</svg>