<svg width="760" height="22" viewBox="0 0 760 22" fill="none" xmlns="http://www.w3.org/2000/svg">
<mask id="mask0_2_22" style="mask-type:luminance" maskUnits="userSpaceOnUse" x="0" y="0" width="760" height="22">
<path d="M760 0H0V22H760V0Z" fill="black"/>
<path d="M3.68701 11.0007C13.336 20.5654 22.9849 20.5654 32.6339 11.0007C42.2828 1.43597 51.9318 1.43597 61.5807 11.0007C71.2297 20.5654 80.879 20.5654 90.5286 11.0007C100.178 1.43597 109.827 1.43597 119.475 11.0007C129.124 20.5654 138.773 20.5654 148.422 11.0007C158.072 1.43597 167.721 1.43597 177.369 11.0007C187.018 20.5654 196.667 20.5654 206.317 11.0007C215.967 1.43597 225.616 1.43597 235.264 11.0007C244.912 20.5654 254.561 20.5654 264.211 11.0007C273.861 1.43597 283.51 1.43597 293.158 11.0007C302.805 20.5654 312.455 20.5654 322.106 11.0007C331.757 1.43597 341.405 1.43597 351.052 11.0007C360.699 20.5654 370.348 20.5654 379.999 11.0007C389.65 1.43597 399.299 1.43597 408.946 11.0007C418.593 20.5654 428.242 20.5654 437.893 11.0007C447.544 1.43597 457.193 1.43597 466.841 11.0007C476.489 20.5654 486.138 20.5654 495.788 11.0007C505.438 1.43597 515.087 1.43597 524.735 11.0007C534.382 20.5654 544.031 20.5654 553.682 11.0007C563.332 1.43597 572.981 1.43597 582.629 11.0007C592.278 20.5654 601.927 20.5654 611.576 11.0007C621.226 1.43597 630.875 1.43597 640.523 11.0007C650.171 20.5654 659.82 20.5654 669.47 11.0007C679.12 1.43597 688.769 1.43597 698.418 11.0007C708.067 20.5654 717.716 20.5654 727.365 11.0007C737.014 1.43597 746.663 1.43597 756.312 11.0007" fill="black"/>
<path d="M3.68701 11.0007C13.336 20.5654 22.9849 20.5654 32.6339 11.0007C42.2828 1.43597 51.9318 1.43597 61.5807 11.0007C71.2297 20.5654 80.879 20.5654 90.5286 11.0007C100.178 1.43597 109.827 1.43597 119.475 11.0007C129.124 20.5654 138.773 20.5654 148.422 11.0007C158.072 1.43597 167.721 1.43597 177.369 11.0007C187.017 20.5654 196.667 20.5654 206.317 11.0007C215.967 1.43597 225.616 1.43597 235.264 11.0007C244.912 20.5654 254.561 20.5654 264.211 11.0007C273.861 1.43597 283.51 1.43597 293.158 11.0007C302.805 20.5654 312.455 20.5654 322.106 11.0007C331.757 1.43597 341.405 1.43597 351.052 11.0007C360.699 20.5654 370.348 20.5654 379.999 11.0007C389.65 1.43597 399.299 1.43597 408.946 11.0007C418.593 20.5654 428.242 20.5654 437.893 11.0007C447.544 1.43597 457.193 1.43597 466.841 11.0007C476.489 20.5654 486.138 20.5654 495.788 11.0007C505.438 1.43597 515.087 1.43597 524.735 11.0007C534.382 20.5654 544.031 20.5654 553.682 11.0007C563.332 1.43597 572.981 1.43597 582.629 11.0007C592.278 20.5654 601.927 20.5654 611.576 11.0007C621.226 1.43597 630.875 1.43597 640.523 11.0007C650.171 20.5654 659.82 20.5654 669.47 11.0007C679.12 1.43597 688.769 1.43597 698.418 11.0007C708.067 20.5654 717.716 20.5654 727.365 11.0007C737.014 1.43597 746.663 1.43597 756.312 11.0007" stroke="white" stroke-width="7.39"/>
</mask>
<g mask="url(#mask0_2_22)">
<path d="M760 0H0V22H760V0Z" fill="black"/>
</g>
</svg>
