<svg width="181" height="152" viewBox="0 0 181 152" fill="none" xmlns="http://www.w3.org/2000/svg">
<path d="M180.282 76C180.282 117.643 140.141 151.4 90.6248 151.4C41.1082 151.4 0.967285 117.643 0.967285 76C0.967285 34.3577 41.1082 0.599976 90.6248 0.599976C140.141 0.599976 180.282 34.3577 180.282 76Z" fill="#045ADC"/>
<mask id="mask0_238_2" style="mask-type:luminance" maskUnits="userSpaceOnUse" x="53" y="23" width="82" height="106">
<path d="M134.5 23.8H53.5V128.2H134.5V23.8Z" fill="white"/>
<path d="M76.2084 32.2363V116.6H64.894V32.2363H76.2084ZM116.344 32.2363V116.6H105.03V32.2363H116.344Z" fill="black"/>
</mask>
<g mask="url(#mask0_238_2)">
<path d="M76.2084 32.2363H82.9584V26.4363H76.2084V32.2363ZM76.2084 116.6V122.4H82.9584V116.6H76.2084ZM64.894 116.6H58.144V122.4H64.894V116.6ZM64.894 32.2363V26.4363H58.144V32.2363H64.894ZM69.4584 32.2363V116.6H82.9584V32.2363H69.4584ZM76.2084 110.8H64.894V122.4H76.2084V110.8ZM71.644 116.6V32.2363H58.144V116.6H71.644ZM64.894 38.0363H76.2084V26.4363H64.894V38.0363ZM116.344 32.2363H123.094V26.4363H116.344V32.2363ZM116.344 116.6V122.4H123.094V116.6H116.344ZM105.03 116.6H98.2795V122.4H105.03V116.6ZM105.03 32.2363V26.4363H98.2795V32.2363H105.03ZM109.594 32.2363V116.6H123.094V32.2363H109.594ZM116.344 110.8H105.03V122.4H116.344V110.8ZM111.78 116.6V32.2363H98.2795V116.6H111.78ZM105.03 38.0363H116.344V26.4363H105.03V38.0363Z" fill="white"/>
</g>
</svg>
