<svg width="50" height="50" viewBox="0 0 50 50" fill="none" xmlns="http://www.w3.org/2000/svg">
<path d="M24.9998 4.16675C22.264 4.16675 19.5549 4.70562 17.0273 5.75259C14.4996 6.79956 12.203 8.33414 10.2684 10.2687C6.36144 14.1757 4.1665 19.4747 4.1665 25.0001C4.1665 34.2084 10.1457 42.0209 18.4165 44.7917C19.4582 44.9584 19.7915 44.3126 19.7915 43.7501V40.2292C14.0207 41.4792 12.7915 37.4376 12.7915 37.4376C11.8332 35.0209 10.479 34.3751 10.479 34.3751C8.58317 33.0834 10.6248 33.1251 10.6248 33.1251C12.7082 33.2709 13.8123 35.2709 13.8123 35.2709C15.6248 38.4376 18.6873 37.5001 19.8748 37.0001C20.0623 35.6459 20.604 34.7292 21.1873 34.2084C16.5623 33.6876 11.7082 31.8959 11.7082 23.9584C11.7082 21.6459 12.4998 19.7917 13.854 18.3126C13.6457 17.7917 12.9165 15.6251 14.0623 12.8126C14.0623 12.8126 15.8123 12.2501 19.7915 14.9376C21.4373 14.4792 23.229 14.2501 24.9998 14.2501C26.7707 14.2501 28.5623 14.4792 30.2082 14.9376C34.1873 12.2501 35.9373 12.8126 35.9373 12.8126C37.0832 15.6251 36.354 17.7917 36.1457 18.3126C37.4998 19.7917 38.2915 21.6459 38.2915 23.9584C38.2915 31.9167 33.4165 33.6667 28.7707 34.1876C29.5207 34.8334 30.2082 36.1042 30.2082 38.0417V43.7501C30.2082 44.3126 30.5415 44.9792 31.604 44.7917C39.8748 42.0001 45.8332 34.2084 45.8332 25.0001C45.8332 22.2642 45.2943 19.5551 44.2473 17.0275C43.2004 14.4999 41.6658 12.2032 39.7312 10.2687C37.7967 8.33414 35.5 6.79956 32.9724 5.75259C30.4448 4.70562 27.7357 4.16675 24.9998 4.16675Z" fill="black"/>
</svg>
