<svg width="50" height="50" viewBox="0 0 50 50" fill="none" xmlns="http://www.w3.org/2000/svg">
<g clip-path="url(#clip0_658_1757)">
<path d="M18.104 18.3188C17.9181 18.542 17.7906 18.808 17.7331 19.0928C17.6757 19.3776 17.69 19.6722 17.7749 19.9501L17.7707 19.9376C17.8749 20.5188 18.3145 20.9751 18.877 21.1022L18.8874 21.1042C20.052 21.2251 21.2237 21.262 22.3936 21.2147L22.3478 21.2167H25.1395C25.4332 21.1688 25.6957 21.0897 25.9436 20.9855L25.9207 20.9938C26.1595 20.8271 26.3544 20.6052 26.489 20.3469C26.6235 20.0886 26.6937 19.8017 26.6936 19.5105L26.6915 19.423V19.4272L26.6936 19.3542C26.6936 19.0642 26.6101 18.7804 26.4531 18.5365C26.2961 18.2927 26.0722 18.0992 25.8082 17.9792L25.7978 17.9751C25.5751 17.8288 25.3142 17.7513 25.0478 17.7522H22.2332C20.5221 17.7522 19.4804 17.7702 19.1082 17.8063C18.7263 17.8498 18.3721 18.0269 18.1082 18.3063L18.104 18.3188ZM25.027 28.8022C22.0492 28.8022 20.2443 28.8397 19.6124 28.9147C19.1537 28.9299 18.7073 29.0665 18.3186 29.3105L18.329 29.3042C18.1051 29.495 17.9343 29.7405 17.8332 30.0167L17.829 30.0292C17.7208 30.2957 17.6828 30.5855 17.7186 30.8709V30.8626C17.7686 31.1605 17.8853 31.4251 18.0561 31.648L18.052 31.6438C18.2292 31.896 18.4782 32.0891 18.7665 32.198L18.777 32.2022C20.8846 32.3908 23.002 32.4451 25.1165 32.3647L25.027 32.3667L30.3853 32.2542L31.3853 32.1417C31.631 32.01 31.8409 31.8203 31.9967 31.589C32.1524 31.3577 32.2494 31.0919 32.279 30.8147V30.8063C32.3249 30.537 32.2975 30.2602 32.1996 30.0051C32.1018 29.75 31.9371 29.5259 31.7228 29.3563L31.7207 29.3542C31.3394 29.1034 30.8938 28.9681 30.4374 28.9647C29.8818 28.9286 28.0749 28.9105 25.0207 28.9105L25.027 28.8022ZM49.9207 43.4292C49.9957 42.7584 50.0332 36.3952 50.0332 24.3397V9.8355C49.9582 7.82578 49.8839 6.48619 49.8103 5.81675C49.74 5.37657 49.5851 4.95419 49.354 4.573L49.3624 4.58758L49.2499 4.14175C48.733 3.10909 47.9847 2.20972 47.0632 1.51373C46.1418 0.817744 45.072 0.343942 43.9374 0.129248L43.8915 0.122998C43.4471 0.0479981 37.1026 0.010498 24.8582 0.010498C12.6138 0.010498 6.30682 0.0479981 5.93737 0.122998C4.57396 0.465658 3.32277 1.15621 2.30612 2.12716L2.30821 2.12508C1.30996 3.08645 0.598127 4.30602 0.251958 5.648L0.241542 5.70008C0.0274867 6.7369 -0.0467843 7.79771 0.0207084 8.85425L0.0186251 8.82091V41.3105C0.0415417 42.4397 0.122792 43.523 0.258208 44.5876L0.241542 44.4355C0.466542 45.3459 0.831125 46.1438 1.31863 46.8542L1.30196 46.8293C1.81654 47.5605 2.44779 48.1709 3.17279 48.648L3.19987 48.6647C3.91862 49.1542 4.75821 49.5376 5.65612 49.7688L5.71238 49.7813C6.66237 49.9001 7.78529 49.9792 8.92279 49.998H41.102C42.2311 49.9751 43.3145 49.8938 44.379 49.7584L44.227 49.7751C45.7303 49.4376 47.093 48.6446 48.129 47.5042L48.1353 47.498C49.1576 46.3849 49.7844 44.9658 49.9186 43.4605L49.9207 43.4334V43.4292ZM40.4332 22.6626C40.5082 23.107 40.5263 24.8376 40.4874 27.8542C40.5331 29.6849 40.4334 31.5164 40.1895 33.3313L40.2082 33.1563C39.7975 34.8028 38.9487 36.3074 37.752 37.5105C36.2983 39.0874 34.3428 40.1116 32.2186 40.4084L32.1707 40.4147C31.504 40.4897 28.9735 40.5077 24.579 40.4688C20.1846 40.4299 17.7283 40.3744 17.2103 40.3022C15.5639 39.9639 14.0386 39.1897 12.7936 38.0605L12.802 38.0667C11.491 36.9614 10.5123 35.5139 9.97488 33.8855L9.95612 33.8209C9.70483 32.9897 9.57364 32.1268 9.56654 31.2584V31.2522C9.53043 30.2105 9.51237 27.9036 9.51237 24.3313C9.58737 20.0147 9.66168 17.6327 9.73529 17.1855C10.1422 15.6232 10.89 14.1704 11.9249 12.9313L11.9103 12.948C12.9274 11.7556 14.2306 10.8409 15.6978 10.2897L15.7624 10.2688C16.5635 9.90054 17.4231 9.67561 18.302 9.60425L18.3311 9.60216C19.22 9.52716 20.8568 9.48966 23.2415 9.48966C25.7721 9.56466 27.2235 9.63897 27.5957 9.71258C29.3853 10.3167 30.9165 11.273 32.1749 12.5063L32.1728 12.5042C33.0355 13.3259 33.7265 14.3106 34.2058 15.4014C34.685 16.4922 34.9429 17.6672 34.9645 18.8584V18.8667C34.9391 19.3099 34.9978 19.7538 35.1374 20.1751L35.1311 20.1501C35.2613 20.4273 35.4727 20.6584 35.7374 20.8126L35.7436 20.8167C35.9722 20.9793 36.241 21.0759 36.5207 21.0959H36.5249L37.8582 21.2084C38.4561 21.223 39.029 21.3042 39.579 21.4438L39.527 21.4313C39.7595 21.5536 39.9615 21.7266 40.118 21.9376C40.2745 22.1486 40.3816 22.3921 40.4311 22.6501L40.4332 22.6626Z" fill="black"/>
</g>
<defs>
<clipPath id="clip0_658_1757">
<rect width="50" height="50" fill="white"/>
</clipPath>
</defs>
</svg>
