<svg width="50" height="51" viewBox="0 0 50 51" fill="none" xmlns="http://www.w3.org/2000/svg">
<g clip-path="url(#clip0_658_1829)">
<path d="M33.3332 6.75C34.9274 6.74991 36.4613 7.35901 37.6212 8.45267C38.7811 9.54634 39.4792 11.0419 39.5728 12.6333L39.5832 13V33.8333H41.1457C42.4936 33.8333 43.604 34.8583 43.7373 36.1708L43.7498 36.4375V40.0833C43.7499 41.6775 43.1408 43.2115 42.0472 44.3714C40.9535 45.5313 39.4579 46.2294 37.8665 46.3229L37.4998 46.3333H16.6665C15.0723 46.3334 13.5383 45.7243 12.3785 44.6307C11.2186 43.537 10.5204 42.0414 10.4269 40.45L10.4165 40.0833V19.25H6.77067C6.12597 19.2503 5.50407 19.0114 5.02533 18.5796C4.54658 18.1478 4.24502 17.5538 4.179 16.9125L4.1665 16.6458V13C4.16642 11.4058 4.77551 9.87184 5.86918 8.71196C6.96284 7.55207 8.45839 6.85394 10.0498 6.76042L10.4165 6.75H33.3332ZM39.5832 38H20.8332V40.0833C20.8332 40.8125 20.7082 41.5146 20.479 42.1667H37.4998C38.0524 42.1667 38.5823 41.9472 38.973 41.5565C39.3637 41.1658 39.5832 40.6359 39.5832 40.0833V38ZM24.9998 25.5H20.8332C20.3022 25.5006 19.7914 25.7039 19.4053 26.0684C19.0192 26.433 18.7868 26.9312 18.7557 27.4612C18.7246 27.9913 18.8971 28.5133 19.2379 28.9205C19.5787 29.3277 20.0621 29.5894 20.5894 29.6521L20.8332 29.6667H24.9998C25.5308 29.6661 26.0416 29.4628 26.4277 29.0982C26.8138 28.7337 27.0462 28.2355 27.0773 27.7054C27.1084 27.1753 26.9359 26.6534 26.5951 26.2462C26.2543 25.839 25.7709 25.5773 25.2436 25.5146L24.9998 25.5ZM29.1665 17.1667H20.8332C20.2806 17.1667 19.7507 17.3862 19.36 17.7769C18.9693 18.1676 18.7498 18.6975 18.7498 19.25C18.7498 19.8025 18.9693 20.3324 19.36 20.7231C19.7507 21.1138 20.2806 21.3333 20.8332 21.3333H29.1665C29.719 21.3333 30.2489 21.1138 30.6396 20.7231C31.0303 20.3324 31.2498 19.8025 31.2498 19.25C31.2498 18.6975 31.0303 18.1676 30.6396 17.7769C30.2489 17.3862 29.719 17.1667 29.1665 17.1667ZM10.4165 10.9167C9.86397 10.9167 9.33407 11.1362 8.94337 11.5269C8.55266 11.9176 8.33317 12.4475 8.33317 13V15.0833H10.4165V10.9167Z" fill="black"/>
</g>
<defs>
<clipPath id="clip0_658_1829">
<rect width="50" height="50" fill="white" transform="translate(0 0.5)"/>
</clipPath>
</defs>
</svg>
