<svg width="50" height="51" viewBox="0 0 50 51" fill="none" xmlns="http://www.w3.org/2000/svg">
<g clip-path="url(#clip0_658_1776)">
<path d="M28.3043 4.6665C29.4093 4.66674 30.4689 5.10588 31.2502 5.88734L40.446 15.0832C41.2275 15.8644 41.6666 16.924 41.6668 18.029V42.1665C41.6668 43.2716 41.2278 44.3314 40.4464 45.1128C39.665 45.8942 38.6052 46.3332 37.5002 46.3332H12.5002C11.3951 46.3332 10.3353 45.8942 9.55388 45.1128C8.77248 44.3314 8.3335 43.2716 8.3335 42.1665V8.83317C8.3335 7.7281 8.77248 6.66829 9.55388 5.88689C10.3353 5.10549 11.3951 4.6665 12.5002 4.6665H28.3043ZM25.0002 8.83317H12.5002V42.1665H37.5002V21.3332H28.1252C27.2964 21.3332 26.5015 21.0039 25.9155 20.4179C25.3294 19.8318 25.0002 19.037 25.0002 18.2082V8.83317ZM28.3127 26.8686C28.7033 26.4777 29.2332 26.2579 29.7859 26.2577C30.3385 26.2576 30.8686 26.4769 31.2595 26.8675C31.6505 27.2582 31.8702 27.7881 31.8704 28.3408C31.8706 28.8934 31.6512 29.4235 31.2606 29.8144L24.7793 36.2978C24.5665 36.5107 24.3138 36.6796 24.0357 36.7948C23.7576 36.91 23.4595 36.9693 23.1585 36.9693C22.8575 36.9693 22.5594 36.91 22.2813 36.7948C22.0032 36.6796 21.7505 36.5107 21.5377 36.2978L18.7397 33.4978C18.3602 33.1048 18.1503 32.5786 18.155 32.0323C18.1598 31.4861 18.3789 30.9636 18.7651 30.5773C19.1514 30.191 19.6739 29.9719 20.2202 29.9672C20.7664 29.9624 21.2927 30.1724 21.6856 30.5519L23.1585 32.0248L28.3127 26.8686ZM29.1668 9.69567V17.1665H36.6377L29.1668 9.69567Z" fill="black"/>
</g>
<defs>
<clipPath id="clip0_658_1776">
<rect width="50" height="50" fill="white" transform="translate(0 0.5)"/>
</clipPath>
</defs>
</svg>
