<svg width="50" height="51" viewBox="0 0 50 51" fill="none" xmlns="http://www.w3.org/2000/svg">
<g clip-path="url(#clip0_658_1736)">
<path d="M44.1248 32.2594L49.4842 34.9406C50.1717 35.2844 50.1717 36.2656 49.4842 36.6094L25.8342 48.4375C25.5749 48.5663 25.2894 48.6334 24.9998 48.6334C24.7103 48.6334 24.4247 48.5663 24.1655 48.4375L0.515459 36.6094C0.360964 36.5315 0.231124 36.4122 0.140405 36.2649C0.0496852 36.1176 0.00164949 35.948 0.00164949 35.775C0.00164949 35.602 0.0496852 35.4324 0.140405 35.285C0.231124 35.1377 0.360964 35.0185 0.515459 34.9406L5.87796 32.2594L22.4936 40.5687C24.0717 41.3562 25.9311 41.3562 27.5061 40.5687L44.1217 32.2562L44.1248 32.2594ZM24.1655 0.696857C24.4247 0.568021 24.7103 0.500977 24.9998 0.500977C25.2894 0.500977 25.5749 0.568021 25.8342 0.696857L49.4842 12.5219C49.6386 12.6002 49.7682 12.7198 49.8588 12.8674C49.9494 13.0149 49.9973 13.1847 49.9973 13.3578C49.9973 13.5309 49.9494 13.7007 49.8588 13.8482C49.7682 13.9958 49.6386 14.1154 49.4842 14.1937L25.8342 26.0156C25.5749 26.1444 25.2894 26.2115 24.9998 26.2115C24.7103 26.2115 24.4247 26.1444 24.1655 26.0156L0.515459 14.1937C0.360145 14.1162 0.22951 13.9969 0.138205 13.8492C0.0468999 13.7016 -0.00146484 13.5314 -0.00146484 13.3578C-0.00146484 13.1842 0.0468999 13.014 0.138205 12.8664C0.22951 12.7187 0.360145 12.5994 0.515459 12.5219L24.1655 0.696857Z" fill="black"/>
<path d="M44.1246 21.0498L49.484 23.7311C50.1715 24.0748 50.1715 25.0561 49.484 25.3998L25.834 37.2248C25.5748 37.3536 25.2892 37.4207 24.9996 37.4207C24.7101 37.4207 24.4245 37.3536 24.1653 37.2248L0.515275 25.3998C0.36078 25.3219 0.230939 25.2027 0.14022 25.0554C0.0495005 24.9081 0.00146484 24.7384 0.00146484 24.5654C0.00146484 24.3924 0.0495005 24.2228 0.14022 24.0755C0.230939 23.9282 0.36078 23.8089 0.515275 23.7311L5.87778 21.0498L22.4934 29.3592C24.0715 30.1467 25.9309 30.1467 27.5059 29.3592L44.1246 21.0498Z" fill="black"/>
</g>
<defs>
<clipPath id="clip0_658_1736">
<rect width="50" height="50" fill="white" transform="translate(0 0.5)"/>
</clipPath>
</defs>
</svg>
