<svg width="50" height="50" viewBox="0 0 50 50" fill="none" xmlns="http://www.w3.org/2000/svg">
<path d="M43.1398 30.6325C42.8998 28.965 41.6123 27.665 39.9548 27.2775C33.5123 25.7675 31.8973 22.0575 31.6248 17.9425C30.4823 17.73 28.4498 17.5 24.9998 17.5C21.5498 17.5 19.5173 17.73 18.3748 17.9425C18.1023 22.0575 16.4873 25.7675 10.0448 27.2775C8.38727 27.6675 7.09977 28.965 6.85977 30.6325L5.61727 39.2375C5.17977 42.2675 7.40477 45 10.4998 45H39.4998C42.5923 45 44.8198 42.2675 44.3823 39.2375L43.1398 30.6325ZM24.9998 38.73C21.5123 38.73 18.6848 35.93 18.6848 32.48C18.6848 29.03 21.5123 26.23 24.9998 26.23C28.4873 26.23 31.3148 29.03 31.3148 32.48C31.3148 35.93 28.4848 38.73 24.9998 38.73ZM49.8748 15C49.8148 11.25 40.2698 5.0025 24.9998 5C9.72727 5.0025 0.182266 11.25 0.124766 15C0.0672665 18.75 0.177267 23.63 6.46227 22.8175C13.8148 21.865 13.3623 19.2975 13.3623 15.6275C13.3623 13.0675 19.3423 12.45 24.9998 12.45C30.6573 12.45 36.6348 13.0675 36.6373 15.6275C36.6373 19.2975 36.1848 21.865 43.5373 22.8175C49.8198 23.63 49.9323 18.75 49.8748 15Z" fill="black"/>
</svg>
