<svg width="50" height="51" viewBox="0 0 50 51" fill="none" xmlns="http://www.w3.org/2000/svg">
<g clip-path="url(#clip0_658_1765)">
<path d="M41.6668 12.9999H22.8057L19.5973 8.58323C19.3387 8.22935 19.0001 7.94168 18.609 7.74374C18.218 7.5458 17.7856 7.44321 17.3473 7.44435H8.33344C7.59673 7.44435 6.89019 7.737 6.36926 8.25794C5.84832 8.77887 5.55566 9.48541 5.55566 10.2221V40.7777C5.55566 41.5144 5.84832 42.2209 6.36926 42.7419C6.89019 43.2628 7.59673 43.5555 8.33344 43.5555H41.6668C42.4035 43.5555 43.11 43.2628 43.631 42.7419C44.1519 42.2209 44.4446 41.5144 44.4446 40.7777V15.7777C44.4446 15.041 44.1519 14.3344 43.631 13.8135C43.11 13.2926 42.4035 12.9999 41.6668 12.9999ZM8.33344 15.7777V10.2221H17.3473L21.1251 15.7777H8.33344Z" fill="black"/>
</g>
<defs>
<clipPath id="clip0_658_1765">
<rect width="50" height="50" fill="white" transform="translate(0 0.5)"/>
</clipPath>
</defs>
</svg>
