<svg width="50" height="50" viewBox="0 0 50 50" fill="none" xmlns="http://www.w3.org/2000/svg">
<path d="M14.5835 16.6667V33.3333C14.5835 36.096 15.681 38.7455 17.6345 40.699C19.588 42.6525 22.2375 43.75 25.0002 43.75C27.7628 43.75 30.4124 42.6525 32.3659 40.699C34.3194 38.7455 35.4168 36.096 35.4168 33.3333V13.5417C35.4168 11.6078 34.6486 9.75313 33.2811 8.38568C31.9137 7.01823 30.059 6.25 28.1252 6.25C26.1913 6.25 24.3366 7.01823 22.9692 8.38568C21.6017 9.75313 20.8335 11.6078 20.8335 13.5417V31.25C20.8335 32.3551 21.2725 33.4149 22.0539 34.1963C22.8353 34.9777 23.8951 35.4167 25.0002 35.4167C26.1052 35.4167 27.165 34.9777 27.9464 34.1963C28.7278 33.4149 29.1668 32.3551 29.1668 31.25V16.6667" stroke="black" stroke-width="4.16667" stroke-linecap="round" stroke-linejoin="round"/>
</svg>
