<svg width="50" height="50" viewBox="0 0 50 50" fill="none" xmlns="http://www.w3.org/2000/svg">
<path d="M8.33317 41.6666C7.18734 41.6666 6.20678 41.2589 5.3915 40.4437C4.57623 39.6284 4.16789 38.6471 4.1665 37.4999V12.4999C4.1665 11.3541 4.57484 10.3735 5.3915 9.55825C6.20817 8.74297 7.18873 8.33464 8.33317 8.33325H41.6665C42.8123 8.33325 43.7936 8.74158 44.6103 9.55825C45.4269 10.3749 45.8346 11.3555 45.8332 12.4999V37.4999C45.8332 38.6458 45.4255 39.627 44.6103 40.4437C43.795 41.2603 42.8137 41.668 41.6665 41.6666H8.33317ZM24.9998 27.0833L41.6665 16.6666V12.4999L24.9998 22.9166L8.33317 12.4999V16.6666L24.9998 27.0833Z" fill="black"/>
</svg>
