<svg width="50" height="51" viewBox="0 0 50 51" fill="none" xmlns="http://www.w3.org/2000/svg">
<g clip-path="url(#clip0_658_1811)">
<path d="M36.0481 20.3417L42.6773 26.9708C43.753 28.0322 44.6081 29.2959 45.1935 30.6891C45.7788 32.0824 46.0827 33.5776 46.0878 35.0888C46.0928 36.6 45.7989 38.0972 45.2229 39.4944C44.647 40.8915 43.8003 42.1609 42.7318 43.2295C41.6632 44.298 40.3938 45.1447 38.9967 45.7206C37.5996 46.2966 36.1023 46.5905 34.5911 46.5855C33.0799 46.5804 31.5847 46.2765 30.1914 45.6911C28.7982 45.1058 27.5345 44.2507 26.4731 43.175L24.2648 40.9667C23.9662 40.6785 23.728 40.3338 23.564 39.9526C23.4001 39.5714 23.3137 39.1614 23.3099 38.7465C23.3061 38.3316 23.3849 37.92 23.5419 37.5359C23.6988 37.1518 23.9307 36.8028 24.224 36.5092C24.5173 36.2157 24.8661 35.9834 25.25 35.8261C25.634 35.6688 26.0455 35.5896 26.4604 35.593C26.8753 35.5964 27.2854 35.6824 27.6668 35.846C28.0481 36.0096 28.3931 36.2475 28.6815 36.5458L30.894 38.7562C31.8723 39.7258 33.1949 40.2683 34.5723 40.2651C35.9497 40.2619 37.2697 39.7132 38.2435 38.7391C39.2173 37.765 39.7656 36.4448 39.7685 35.0674C39.7713 33.6901 39.2284 32.3676 38.2585 31.3896L31.6294 24.7604C30.9129 24.0436 30.0028 23.5514 29.0107 23.3442C28.0185 23.1369 26.9875 23.2237 26.044 23.5937C25.7065 23.7271 25.394 23.8646 25.0981 24.0021L24.1315 24.4542C22.8398 25.0375 21.8461 25.2875 20.5815 24.025C18.7648 22.2083 19.2356 20.5312 21.4502 19.0042C23.6566 17.4869 26.3244 16.79 28.9909 17.0343C31.6574 17.2787 34.1542 18.4488 36.0481 20.3417ZM23.5273 7.82082L25.7356 10.0292C26.3052 10.6183 26.6205 11.4075 26.6138 12.2269C26.6071 13.0462 26.2788 13.8302 25.6996 14.4099C25.1205 14.9895 24.3369 15.3186 23.5175 15.3261C22.6981 15.3336 21.9086 15.019 21.319 14.45L19.1086 12.2417C18.6282 11.7441 18.0536 11.3471 17.4183 11.074C16.7829 10.8008 16.0995 10.657 15.408 10.6508C14.7164 10.6446 14.0305 10.7762 13.3904 11.0379C12.7502 11.2996 12.1686 11.6861 11.6794 12.175C11.1903 12.6639 10.8034 13.2453 10.5413 13.8853C10.2793 14.5253 10.1473 15.2111 10.1531 15.9027C10.1589 16.5942 10.3024 17.2777 10.5752 17.9132C10.848 18.5487 11.2446 19.1236 11.7419 19.6042L18.371 26.2333C19.0876 26.9502 19.9977 27.4423 20.9898 27.6496C21.9819 27.8568 23.0129 27.7701 23.9565 27.4C24.294 27.2667 24.6065 27.1292 24.9023 26.9917L25.869 26.5396C27.1606 25.9562 28.1565 25.7062 29.419 26.9687C31.2356 28.7854 30.7648 30.4625 28.5502 31.9896C26.3439 33.5068 23.676 34.2037 21.0095 33.9594C18.343 33.7151 15.8462 32.545 13.9523 30.6521L7.32313 24.0229C6.24743 22.9615 5.3923 21.6978 4.80698 20.3046C4.22166 18.9114 3.91772 17.4161 3.91266 15.9049C3.9076 14.3937 4.20151 12.8965 4.77748 11.4994C5.35345 10.1022 6.20009 8.83284 7.26867 7.76427C8.33724 6.6957 9.60663 5.84905 11.0038 5.27309C12.4009 4.69712 13.8981 4.4032 15.4093 4.40827C16.9205 4.41333 18.4158 4.71727 19.809 5.30259C21.2022 5.8879 22.4659 6.74511 23.5273 7.82082Z" fill="black"/>
</g>
<defs>
<clipPath id="clip0_658_1811">
<rect width="50" height="50" fill="white" transform="translate(0 0.5)"/>
</clipPath>
</defs>
</svg>
